<svg width="40" height="32" viewBox="0 0 40 32" fill="none" xmlns="http://www.w3.org/2000/svg">
<path d="M39.3846 7.27074C39.2445 7.06926 39.0167 6.95538 38.7714 6.95538H10.6083L8.52341 0.534355C8.42705 0.218998 8.12921 0 7.79633 0H0.770873C0.350397 0 0 0.341637 0 0.770873C0 1.20011 0.341637 1.54175 0.770873 1.54175H7.24446L9.32056 7.95401C9.32932 7.96277 9.32056 7.96277 9.32932 7.97153L13.2625 20.1653C13.28 20.2179 13.3063 20.2617 13.3326 20.3055L14.4451 23.7219C14.5502 24.0372 14.8393 24.2475 15.1722 24.2475H34.1024C34.5229 24.2475 34.8733 23.9058 34.8733 23.4766C34.8733 23.0474 34.5316 22.7057 34.1024 22.7057H15.7241L15.0671 20.6822H34.8382C35.1711 20.6822 35.4689 20.4719 35.5653 20.1566L39.5073 7.96277C39.5773 7.72625 39.5335 7.46345 39.3846 7.27074ZM11.1076 8.4796H15.3649L16.311 13.4465H12.7282L11.1076 8.4796ZM14.5678 19.1492L13.2187 14.9882H16.6001L17.3797 19.1492H14.5678ZM16.9242 8.4796H20.8223L21.1465 13.4465H17.8615L16.9242 8.4796ZM18.939 19.1492L18.1506 14.9882H21.2516L21.5231 19.1492H18.939ZM25.7629 19.1492H23.0474L22.7758 14.9882H26.0257L25.7629 19.1492ZM26.1308 13.4465H22.6794L22.3641 8.4796H26.4462L26.1308 13.4465ZM29.8801 19.1492H27.3047L27.5675 14.9882H30.6685L29.8801 19.1492ZM27.6638 13.4465L27.988 8.4796H31.8861L30.9488 13.4465H27.6638ZM34.2688 19.1492H31.4306L32.219 14.9882H35.6178L34.2688 19.1492ZM36.1084 13.4465H32.5081L33.4541 8.4796H37.7115L36.1084 13.4465Z" fill="white"/>
<path d="M16.5563 25.6753C15.7153 25.6753 14.9181 26.0082 14.3225 26.6039C13.7268 27.1996 13.3939 27.9967 13.3939 28.8377C13.3939 29.6786 13.7268 30.4758 14.3225 31.0714C14.9181 31.6671 15.7153 32 16.5563 32C17.3972 32 18.1944 31.6671 18.79 31.0714C19.3857 30.4758 19.7186 29.6786 19.7186 28.8377C19.7186 27.9967 19.3857 27.1996 18.79 26.6039C18.2031 26.017 17.3972 25.6841 16.5563 25.6753ZM16.5563 30.467C16.127 30.467 15.7153 30.2918 15.4087 29.994C15.1021 29.6874 14.9357 29.2757 14.9357 28.8464C14.9357 28.4172 15.1109 28.0055 15.4087 27.6989C15.7153 27.3923 16.127 27.2258 16.5563 27.2258C16.9855 27.2258 17.3972 27.401 17.7038 27.6989C18.0104 28.0055 18.1768 28.4172 18.1768 28.8464C18.1768 29.2757 18.0016 29.6874 17.7038 29.994C17.406 30.2918 16.9942 30.4583 16.5563 30.467Z" fill="white"/>
<path d="M32.6746 25.6753C31.8336 25.6753 31.0365 26.0082 30.4408 26.6039C29.8539 27.1996 29.521 27.9967 29.521 28.8377C29.521 29.6786 29.8539 30.4758 30.4495 31.0714C31.0452 31.6584 31.8424 31.9912 32.6833 31.9912C33.5243 31.9912 34.3214 31.6584 34.9171 31.0627C35.5128 30.467 35.8369 29.6699 35.8369 28.8289C35.8369 27.988 35.504 27.1908 34.9083 26.5951C34.3127 26.0082 33.5068 25.6753 32.6746 25.6753ZM32.6746 30.467C32.2453 30.467 31.8336 30.2918 31.527 29.9852C31.2204 29.6786 31.054 29.2669 31.054 28.8377C31.054 28.4084 31.2292 27.9967 31.5358 27.6901C31.8424 27.3835 32.2541 27.2171 32.6833 27.2171C33.1126 27.2171 33.5243 27.3923 33.8309 27.6901C34.1375 27.9967 34.3039 28.4084 34.3039 28.8377C34.3039 29.2669 34.1287 29.6786 33.8221 29.9852C33.5155 30.2918 33.1038 30.467 32.6746 30.467Z" fill="white"/>
</svg>
