<svg width="26" height="26" viewBox="0 0 26 26" fill="none" xmlns="http://www.w3.org/2000/svg">
<path d="M25.74 24.4284L19.665 18.3535C21.5233 16.1569 22.4609 13.3271 22.2812 10.4556C22.1018 7.58405 20.8195 4.89307 18.702 2.94494C16.5846 0.99682 13.7962 -0.0574029 10.9195 0.00241304C8.04293 0.0622237 5.30073 1.23174 3.26622 3.26617C1.2317 5.3006 0.0622294 8.04255 0.00241256 10.9193C-0.0573989 13.7958 0.996886 16.5841 2.94499 18.7018C4.89293 20.8192 7.58405 22.1015 10.4557 22.2809C13.3273 22.4606 16.1571 21.523 18.3538 19.6647L24.4287 25.7396C24.6642 25.967 25.0022 26.0535 25.318 25.967C25.6336 25.8803 25.8803 25.6336 25.967 25.318C26.0535 25.0022 25.967 24.6642 25.7396 24.4287L25.74 24.4284ZM1.90489 11.1761C1.90489 8.71705 2.88178 6.35875 4.62065 4.62021C6.35931 2.88137 8.71765 1.9045 11.1767 1.9045C13.6357 1.9045 15.9941 2.88137 17.7327 4.62021C19.4715 6.35885 20.4484 8.71716 20.4484 11.1761C20.4484 13.6351 19.4715 15.9935 17.7327 17.732C15.994 19.4709 13.6357 20.4478 11.1767 20.4478C8.71839 20.4451 6.3617 19.4674 4.6233 17.7292C2.8849 15.991 1.90733 13.6343 1.90468 11.1759L1.90489 11.1761Z" fill="white"/>
</svg>
