<svg width="27" height="32" viewBox="0 0 27 32" fill="none" xmlns="http://www.w3.org/2000/svg">
<path d="M18.9643 16.5664L13.3653 22.1654C13.0514 22.4687 12.5524 22.4644 12.2438 22.1558C11.9352 21.8472 11.931 21.3482 12.2342 21.0343L16.4685 16.8H0.799822C0.358123 16.8 0 16.4416 0 15.9999C0 15.5582 0.35813 15.1998 0.799822 15.1998H16.4685L12.2342 10.9655C11.931 10.6516 11.9352 10.1526 12.2438 9.844C12.5524 9.53543 13.0514 9.53114 13.3653 9.83436L18.9643 15.4334C19.2767 15.7465 19.2767 16.2533 18.9643 16.5667V16.5664Z" fill="white"/>
<path d="M26.4003 3.99993V28.0001C26.3992 29.0605 25.9773 30.0773 25.2273 30.8273C24.4776 31.5773 23.4608 31.9989 22.4001 32H16.0002C14.9397 31.9989 13.9229 31.5773 13.173 30.8273C12.423 30.0773 12.0013 29.0605 12.0002 28.0001V26.4002C12.0002 25.9582 12.3584 25.6001 12.8001 25.6001C13.242 25.6001 13.6002 25.9582 13.6002 26.4002V28.0001C13.601 28.6365 13.8538 29.2464 14.3038 29.6964C14.7539 30.1464 15.3638 30.3993 16.0002 30.4001H22.4001C23.0365 30.3993 23.6465 30.1464 24.0965 29.6964C24.5464 29.2464 24.7996 28.6365 24.8001 28.0001V3.99993C24.7996 3.3635 24.5465 2.75357 24.0965 2.3036C23.6464 1.85363 23.0365 1.60074 22.4001 1.59992H16.0002C15.3637 1.60072 14.7538 1.85358 14.3038 2.3036C13.8539 2.75363 13.601 3.36352 13.6002 3.99993V5.59985C13.6002 6.04182 13.242 6.39995 12.8001 6.39995C12.3584 6.39995 12.0002 6.04182 12.0002 5.59985V3.99993C12.0013 2.93947 12.4229 1.92269 13.173 1.17272C13.923 0.422745 14.9398 0.00109715 16.0002 0H22.4001C23.4609 0.00107143 24.4776 0.422684 25.2273 1.17272C25.9774 1.92275 26.3992 2.93954 26.4003 3.99993Z" fill="white"/>
</svg>
