<svg width="169" height="60" viewBox="0 0 169 60" fill="none" xmlns="http://www.w3.org/2000/svg">
<path d="M0 39.1698V7.34468H2.41313V4.89553H4.82626V2.44638H7.23939V0H38.5992V31.8251H36.1861V34.2742H33.7729V36.7234H31.3598V39.1725H0V39.1698ZM28.9467 36.7234V9.79383H2.41313V36.7234H28.9467ZM31.3598 4.89553H33.7729V2.44638H7.23667V4.89553H4.82354V7.34468H31.3571V4.89553H31.3598ZM12.0602 31.8251V29.3759H9.64707V17.1357H12.0602V14.6866H19.2969V17.1357H21.71V19.5849H19.2969V17.1357H12.0602V29.3759H19.2969V24.4804H16.8837V22.0313H21.7073V29.3759H19.2941V31.8251H12.0602ZM33.7702 31.8251H36.1833V4.89553H33.7702V7.34468H31.3571V34.2742H33.7702V31.8251Z" fill="white"/>
<path d="M43.42 39.1698V7.34468H45.8331V4.89553H48.2463V2.44638H50.6594V0H82.0192V31.8251H79.6061V34.2742H77.193V36.7234H74.7798V39.1725H43.42V39.1698ZM72.3667 36.7234V9.79383H45.8331V36.7234H72.3667ZM74.7771 4.89553H77.1902V2.44638H50.6567V4.89553H48.2436V7.34468H74.7771V4.89553ZM53.0671 31.8251V17.1357H55.4802V14.6866H62.7169V17.1357H65.13V31.8251H62.7169V24.4804H55.4802V31.8251H53.0671ZM62.7169 22.034V17.1385H55.4802V22.034H62.7169ZM77.1902 31.8251H79.6034V4.89553H77.1902V7.34468H74.7771V34.2742H77.1902V31.8251Z" fill="white"/>
<path d="M86.84 39.1698V7.34468H89.2532V4.89553H91.6663V2.44638H94.0794V0H125.439V31.8251H123.026V34.2742H120.613V36.7234H118.2V39.1725H86.84V39.1698ZM115.787 36.7234V9.79383H89.2532V36.7234H115.787ZM118.197 4.89553H120.61V2.44638H94.0767V4.89553H91.6636V7.34468H118.197V4.89553ZM96.4871 31.8251V14.6866H101.311V17.1357H103.724V14.6866H108.547V31.8251H106.134V17.1357H103.721V31.8251H101.308V17.1357H98.8948V31.8251H96.4871ZM120.61 31.8251H123.023V4.89553H120.61V7.34468H118.197V34.2742H120.61V31.8251Z" fill="white"/>
<path d="M130.26 39.1698V7.34468H132.673V4.89553H135.086V2.44638H137.499V0H168.859V31.8251H166.446V34.2742H164.033V36.7234H161.62V39.1725H130.26V39.1698ZM159.207 36.7234V9.79383H132.673V36.7234H159.207ZM161.617 4.89553H164.03V2.44638H137.497V4.89553H135.084V7.34468H161.617V4.89553ZM139.907 31.8251V14.6866H151.967V17.1357H142.32V22.0313H151.967V24.4804H142.32V29.3759H151.967V31.8251H139.907ZM164.03 31.8251H166.443V4.89553H164.03V7.34468H161.617V34.2742H164.03V31.8251Z" fill="white"/>
<path d="M9.46985 59.9972V47.0237H13.1209V48.8778H14.9478V47.0237H18.5989V59.9972H16.772V48.8778H14.9451V59.9972H13.1182V48.8778H11.2913V59.9972H9.46985Z" fill="white"/>
<path d="M42.7056 59.9972V48.8778H44.5325V47.0236H50.0105V48.8778H51.8374V59.9972H50.0105V54.4375H44.5325V59.9972H42.7056ZM50.0105 52.5833V48.8778H44.5325V52.5833H50.0105Z" fill="white"/>
<path d="M75.9414 59.9972V47.0236H79.5925V48.8778H81.4194V58.1458H83.2463V47.0264H85.0731V60H83.2463H81.4194V58.1458H79.5925V48.8778H77.7656V59.9972H75.9414Z" fill="white"/>
<path d="M109.174 59.9972V58.1431H112.826V48.8751L109.174 48.9027V47.0209H118.306V48.8751H114.655V58.1431H118.306V59.9972H109.174Z" fill="white"/>
<path d="M142.41 59.9972V48.8778H144.237V47.0236H149.715V48.8778H151.542V59.9972H149.715V54.4375H144.237V59.9972H142.41ZM149.715 52.5833V48.8778H144.237V52.5833H149.715Z" fill="white"/>
</svg>
