<?xml version="1.0" encoding="utf-8"?>
<!-- Generator: Adobe Illustrator 26.0.3, SVG Export Plug-In . SVG Version: 6.00 Build 0)  -->
<svg version="1.1" id="Camada_1" xmlns="http://www.w3.org/2000/svg" xmlns:xlink="http://www.w3.org/1999/xlink" x="0px" y="0px"
	 viewBox="0 0 750 370" style="enable-background:new 0 0 750 370;" xml:space="preserve">
<g>
	<g>
		<path d="M65.37,218.14V103.14h8.85v-8.85h8.85v-8.85h8.85V76.6h115.01V191.6h-8.85v8.85h-8.85v8.85h-8.85v8.85H65.37z
			 M171.53,209.3v-97.31H74.22v97.31H171.53z M180.38,94.29h8.85v-8.85H91.91v8.85h-8.85v8.85h97.31V94.29z M109.6,191.6v-8.85
			h-8.85v-44.23h8.85v-8.85h26.54v8.85h8.85v8.85h-8.85v-8.85H109.6v44.23h26.54v-17.69h-8.85v-8.85h17.69v26.54h-8.85v8.85H109.6z
			 M189.22,191.6h8.85V94.29h-8.85v8.85h-8.85v97.31h8.85V191.6z"/>
		<path d="M224.61,218.14V103.14h8.85v-8.85h8.85v-8.85h8.85V76.6h115.01V191.6h-8.85v8.85h-8.85v8.85h-8.85v8.85H224.61z
			 M330.77,209.3v-97.31h-97.31v97.31H330.77z M339.61,94.29h8.85v-8.85h-97.31v8.85h-8.85v8.85h97.31V94.29z M259.99,191.6v-53.08
			h8.85v-8.85h26.54v8.85h8.85v53.08h-8.85v-26.54h-26.54v26.54H259.99z M295.38,156.22v-17.69h-26.54v17.69H295.38z M348.46,191.6
			h8.85V94.29h-8.85v8.85h-8.85v97.31h8.85V191.6z"/>
		<path d="M383.85,218.14V103.14h8.85v-8.85h8.85v-8.85h8.85V76.6h115.01V191.6h-8.85v8.85h-8.85v8.85h-8.85v8.85H383.85z
			 M490.01,209.3v-97.31h-97.31v97.31H490.01z M498.85,94.29h8.85v-8.85h-97.31v8.85h-8.85v8.85h97.31V94.29z M419.23,191.6v-61.93
			h17.69v8.85h8.85v-8.85h17.69v61.93h-8.85v-53.08h-8.85v53.08h-8.85v-53.08h-8.85v53.08H419.23z M507.7,191.6h8.85V94.29h-8.85
			v8.85h-8.85v97.31h8.85V191.6z"/>
		<path d="M543.09,218.14V103.14h8.85v-8.85h8.85v-8.85h8.85V76.6h115.01V191.6h-8.85v8.85h-8.85v8.85h-8.85v8.85H543.09z
			 M649.25,209.3v-97.31h-97.31v97.31H649.25z M658.09,94.29h8.85v-8.85h-97.31v8.85h-8.85v8.85h97.31V94.29z M578.47,191.6v-61.93
			h44.23v8.85h-35.38v17.69h35.38v8.85h-35.38v17.69h35.38v8.85H578.47z M666.94,191.6h8.85V94.29h-8.85v8.85h-8.85v97.31h8.85
			V191.6z"/>
	</g>
	<g>
		<path d="M100.1,293.4v-46.88h13.39v6.7h6.7v-6.7h13.39v46.88h-6.7v-40.18h-6.7v40.18h-6.7v-40.18h-6.7v40.18H100.1z"/>
		<path d="M221.99,293.4v-40.18h6.7v-6.7h20.09v6.7h6.7v40.18h-6.7v-20.09h-20.09v20.09H221.99z M248.78,266.61v-13.39h-20.09v13.39
			H248.78z"/>
		<path d="M343.88,293.4v-46.88h13.39v6.7h6.7v33.49h6.7v-40.18h6.7v46.88h-6.7h-6.7v-6.7h-6.7v-33.49h-6.7v40.18H343.88z"/>
		<path d="M465.76,293.4v-6.7h13.39v-33.49l-13.39,0.1v-6.8h33.49v6.7h-13.39v33.49h13.39v6.7H465.76z"/>
		<path d="M587.65,293.4v-40.18h6.7v-6.7h20.09v6.7h6.7v40.18h-6.7v-20.09h-20.09v20.09H587.65z M614.44,266.61v-13.39h-20.09v13.39
			H614.44z"/>
	</g>
</g>
</svg>
