<?xml version="1.0" encoding="utf-8"?>
<!-- Generator: Adobe Illustrator 26.2.1, SVG Export Plug-In . SVG Version: 6.00 Build 0)  -->
<svg version="1.1" id="Camada_1" xmlns="http://www.w3.org/2000/svg" xmlns:xlink="http://www.w3.org/1999/xlink" x="0px" y="0px"
	 viewBox="0 0 700 700" style="enable-background:new 0 0 700 700;" xml:space="preserve">
<style type="text/css">
	.st0{fill:#0066FF;}
</style>
<g>
	<path class="st0" d="M452.48,257.6H247.52c-10.08,0-17.92,7.84-17.92,17.92c0,10.08,7.84,17.92,17.92,17.92h204.96
		c10.08,0,17.92-7.84,17.92-17.92C470.4,265.44,462.56,257.6,452.48,257.6z"/>
	<path class="st0" d="M452.48,332.08H247.52c-10.08,0-17.92,7.84-17.92,17.92c0,10.08,7.84,17.92,17.92,17.92h204.96
		c10.08,0,17.92-7.84,17.92-17.92C470.4,339.92,462.56,332.08,452.48,332.08z"/>
	<path class="st0" d="M452.48,406.56H247.52c-10.08,0-17.92,7.84-17.92,17.92c0,10.08,7.84,17.92,17.92,17.92h204.96
		c10.08,0,17.92-7.84,17.92-17.92C470.4,414.96,462.56,406.56,452.48,406.56z"/>
	<path class="st0" d="M350,103.6C211.12,103.6,98,213.92,98,350s113.12,246.4,252,246.4S602,485.52,602,350
		C602,213.92,488.88,103.6,350,103.6z M350,562.8c-120.4,0-217.84-95.2-217.84-212.8c0-117.04,98-212.8,217.84-212.8
		c120.4,0,217.84,95.2,217.84,212.8C567.84,467.04,470.4,562.8,350,562.8L350,562.8z"/>
</g>
</svg>
